<?xml version="1.0" encoding="utf-8"?>
<svg viewBox="0 0 500 500" width="500" height="500" version="1.2" baseProfile="tiny-ps" xmlns="http://www.w3.org/2000/svg">
  <title>People of Programming Logo</title>
  <rect width="500" height="500" fill=" rgb(200, 216, 224)" />
  <ellipse cx="250.31" cy="248.915" rx="233.871" ry="230.77" fill-rule=" nonzero" fill=" rgb(255, 255, 255)" />
  <g transform="matrix(0.125124, 0, 0, -0.125124, -0.441711, 500.496284)" fill="#000000" stroke="none">
    <path d="M1170 3860 c0 -77 -4 -140 -8 -140 -4 0 -55 -28 -113 -62 -317 -187 -588 -469 -743 -776 l-26 -52 -140 0 -140 0 0 -825 0 -825 144 0 144 0 12 -32 c8 -18 38 -73 68 -123 172 -282 420 -522 707 -684 l95 -54 0 -143 0 -144 830 0 830 0 0 144 0 143 95 54 c287 162 535 402 707 684 30 50 60 105 68 123 l12 32 144 0 144 0 0 825 0 825 -140 0 -140 0 -26 52 c-155 307 -426 589 -743 776 -58 34 -109 62 -113 62 -4 0 -8 63 -8 140 l0 140 -830 0 -830 0 0 -140z m1067 -35 c548 -72 1032 -384 1322 -853 262 -421 339 -935 216 -1422 -163 -642 -679 -1158 -1320 -1319 -292 -74 -618 -74 -910 0 -641 161 -1157 677 -1320 1319 -79 311 -75 660 10 954 92 317 243 573 472 802 405 402 966 592 1530 519z" fill=" rgb(76, 131, 156)" />
    <path d="M1856 3265 c-396 -75 -677 -418 -677 -825 -1 -231 81 -443 219 -572 68 -64 119 -88 187 -88 58 0 95 22 95 56 0 9 -40 59 -90 110 -70 73 -99 113 -130 177 -54 113 -81 221 -81 332 -1 153 30 252 119 382 76 111 165 176 297 220 69 23 97 26 205 26 108 0 136 -3 205 -26 170 -56 281 -160 366 -340 78 -169 67 -391 -31 -594 -31 -64 -60 -104 -130 -177 -50 -51 -90 -101 -90 -110 0 -34 37 -56 95 -56 68 0 119 24 187 88 207 194 279 569 167 872 -135 365 -536 596 -913 525z" fill=" rgb(76, 131, 156)" />
    <path d="M1794 2389 c-47 -13 -79 -53 -79 -99 0 -55 33 -86 104 -101 31 -6 62 -16 69 -21 9 -8 12 -72 12 -259 l0 -249 -115 0 c-124 0 -160 -10 -189 -52 -34 -48 -13 -113 44 -143 43 -22 677 -22 720 0 80 42 80 138 0 180 -21 11 -62 15 -145 15 l-115 0 0 249 c0 187 3 251 13 259 6 5 37 15 68 21 71 15 104 46 104 101 0 47 -32 86 -84 100 -44 12 -364 12 -407 -1z" fill=" rgb(76, 131, 156)" />
    <path d="M1695 1273 c-59 -12 -93 -76 -69 -132 24 -57 48 -61 376 -61 259 0 297 2 327 18 64 32 72 119 14 158 -26 17 -53 19 -328 20 -165 1 -309 0 -320 -3z" fill=" rgb(76, 131, 156)" />
    <path d="M1733 899 c-43 -12 -76 -55 -68 -89 3 -14 17 -35 31 -47 25 -23 29 -23 304 -23 275 0 279 0 304 23 54 48 34 116 -42 137 -46 12 -485 12 -529 -1z" fill=" rgb(76, 131, 156)" />
  </g>
</svg>